<svg xmlns="http://www.w3.org/2000/svg" viewBox="0 0 400 150" width="400" height="150"><path fill="#FFF" d="M0 0h400v150H0z"/><g transform="translate(-13.0 -147.0) rotate(0.0 222.5 222.5) scale(0.41203703703703703 0.41203703703703703)"><svg width="1080" height="1080" viewBox="0 0 1080 1080"><g><text xml:space="preserve" font-family="Raleway" font-size="105" font-weight="700" style="stroke:none;stroke-width:1;stroke-dasharray:none;stroke-linecap:butt;stroke-dashoffset:0;stroke-linejoin:miter;stroke-miterlimit:4;fill:#000;fill-rule:nonzero;opacity:1;white-space:pre" transform="matrix(1 0 0 1 613.7 520.65)"><tspan x="-351.56" y="32.98">Quantum Mind</tspan></text></g><g><g><g><path style="stroke:#000;stroke-width:.5;stroke-dasharray:none;stroke-linecap:butt;stroke-dashoffset:0;stroke-linejoin:miter;stroke-miterlimit:10;fill:none;fill-rule:nonzero;opacity:1" vector-effect="non-scaling-stroke" transform="matrix(2.51 0 0 2.51 162.42 511.07) matrix(1.6 0 0 1.6 -0.07 0.03) translate(-24.96, -25.02)" d="M20.19 6C14.9 4.47 7.47 1.24 4.81 6.59 1.9 12.47 7.05 18 10.41 22.35c2.31 3.3 1.49 6.12-1.57 9.34C2 38.86 5.08 48.46 15.15 48.62c4.39 0 8.46-2.08 12.33-4.16 7.42-4 12-1.05 16.83-4.52 3.24-2.31.95-8.21-.39-11.76a13.7 13.7 0 0 1-.21-9.26c1-3.82 1.64-10-2.58-11.91-1.92-.72-4.13.11-6.13-.54-2.48-.83-3.72-3.76-6.15-4.73C24.12-.16 24 7 20.19 6Z" stroke-linecap="round"/></g><g><path style="stroke:#000;stroke-width:.49;stroke-dasharray:none;stroke-linecap:butt;stroke-dashoffset:0;stroke-linejoin:miter;stroke-miterlimit:10;fill:none;fill-rule:nonzero;opacity:1" vector-effect="non-scaling-stroke" transform="matrix(2.51 0 0 2.51 162.42 511.07) matrix(1.6 0 0 1.6 0.86 0.03) translate(-25.54, -25.02)" d="M29.19 2.89c2.31.9 3.51 3.65 5.87 4.44 1.85.62 4-.19 5.78.55 4 1.68 3.63 7.7 2.55 11.29a14.17 14.17 0 0 0 .23 8.83c1.25 3.4 3.35 9 .27 11.22-4.62 3.34-9 .65-16 4.38-3.67 1.94-7.54 3.91-11.68 3.84-9.5-.14-12.43-9.24-6.11-16 2.84-3.05 3.67-5.77 1.45-8.86-3-4.21-7.92-9.39-5.15-14.94 2.5-5.11 9.5-2.14 14.51-.78 3.6.98 3.77-5.75 8.28-3.97Z" stroke-linecap="round"/></g><g><path style="stroke:#000;stroke-width:.47;stroke-dasharray:none;stroke-linecap:butt;stroke-dashoffset:0;stroke-linejoin:miter;stroke-miterlimit:10;fill:none;fill-rule:nonzero;opacity:1" vector-effect="non-scaling-stroke" transform="matrix(2.51 0 0 2.51 162.42 511.07) matrix(1.6 0 0 1.6 1.73 -0.04) translate(-26.08, -24.98)" d="M29.48 4c2.19.85 3.37 3.4 5.6 4.15 1.75.59 3.76-.15 5.47.56C44.38 10.36 44 16 43.07 19.42a13.9 13.9 0 0 0 .25 8.35c1.16 3.26 3.08 8.55.16 10.69-4.37 3.2-8.54.78-15.23 4.23-3.47 1.81-7.12 3.62-11 3.53C8.3 46 5.5 37.5 11.33 31.09c2.62-2.88 3.38-5.46 1.31-8.37-2.83-4-7.32-8.9-4.7-14.13 2.4-4.77 9-2.07 13.7-.84 3.36.9 3.6-5.35 7.84-3.75Z" stroke-linecap="round"/></g><g><path style="stroke:#000;stroke-width:.46;stroke-dasharray:none;stroke-linecap:butt;stroke-dashoffset:0;stroke-linejoin:miter;stroke-miterlimit:10;fill:none;fill-rule:nonzero;opacity:1" vector-effect="non-scaling-stroke" transform="matrix(2.51 0 0 2.51 162.42 511.07) matrix(1.6 0 0 1.6 2.62 -0.03) translate(-26.64, -24.98)" d="M29.77 5.19C31.85 6 33 8.34 35.1 9.05c1.65.55 3.55-.11 5.16.57 3.6 1.54 3.36 6.82 2.49 10.06a13.73 13.73 0 0 0 .25 7.88c1.09 3.12 2.81 8.11.06 10.16-4.12 3.07-8.1.9-14.43 4.09-3.28 1.66-6.71 3.32-10.38 3.21-8.35-.23-11-8.2-5.68-14.24 2.4-2.7 3.08-5.13 1.18-7.88C11.14 19.11 7 14.49 9.51 9.58c2.26-4.47 8.4-2 12.86-.93 3.18.8 3.42-4.96 7.4-3.46Z" stroke-linecap="round"/></g><g><path style="stroke:#000;stroke-width:.45;stroke-dasharray:none;stroke-linecap:butt;stroke-dashoffset:0;stroke-linejoin:miter;stroke-miterlimit:10;fill:none;fill-rule:nonzero;opacity:1" vector-effect="non-scaling-stroke" transform="matrix(2.51 0 0 2.51 162.42 511.07) matrix(1.6 0 0 1.6 3.54 0) translate(-27.21, -25)" d="M30.06 6.34c2 .72 3.07 2.9 5.06 3.56 1.56.53 3.33-.05 4.84.59 3.39 1.46 3.23 6.38 2.47 9.44a13.6 13.6 0 0 0 .28 7.43c1 3 2.54 7.65-.05 9.62-3.88 2.93-7.67 1-13.63 4-3.08 1.52-6.31 3-9.74 2.89-7.77-.32-10.29-7.72-5.47-13.39 2.18-2.53 2.8-4.81 1.06-7.4-2.41-3.58-6.13-7.92-3.8-12.5 2.13-4.18 7.84-2 12-1 2.99.67 3.27-4.58 6.98-3.24Z" stroke-linecap="round"/></g><g><path style="stroke:#000;stroke-width:.43;stroke-dasharray:none;stroke-linecap:butt;stroke-dashoffset:0;stroke-linejoin:miter;stroke-miterlimit:10;fill:none;fill-rule:nonzero;opacity:1" vector-effect="non-scaling-stroke" transform="matrix(2.51 0 0 2.51 162.42 511.07) matrix(1.6 0 0 1.6 4.44 -0.09) translate(-27.77, -24.94)" d="M30.36 7.49c1.85.66 2.91 2.64 4.78 3.27 1.46.5 3.12 0 4.53.61 3.17 1.38 3.1 5.93 2.44 8.81a13.51 13.51 0 0 0 .3 7c.91 2.83 2.26 7.2-.17 9.09C38.62 39 35 37.37 29.42 40c-2.89 1.38-5.9 2.73-9.09 2.59-7.2-.33-9.63-7.17-5.26-12.45 2-2.36 2.5-4.49.93-6.91-2.2-3.38-5.54-7.44-3.35-11.69 2-3.9 7.27-2 11.17-1.14 2.77.66 3.09-4.15 6.54-2.91Z" stroke-linecap="round"/></g><g><path style="stroke:#000;stroke-width:.42;stroke-dasharray:none;stroke-linecap:butt;stroke-dashoffset:0;stroke-linejoin:miter;stroke-miterlimit:10;fill:none;fill-rule:nonzero;opacity:1" vector-effect="non-scaling-stroke" transform="matrix(2.51 0 0 2.51 162.42 511.07) matrix(1.6 0 0 1.6 5.4 -0.03) translate(-28.37, -24.98)" d="M30.65 8.64c1.73.6 2.77 2.39 4.51 3 1.37.46 2.91 0 4.22.62 2.94 1.31 3 5.5 2.41 8.19a13.59 13.59 0 0 0 .32 6.55c.82 2.68 2 6.75-.28 8.55-3.37 2.66-6.8 1.25-12 3.66-2.69 1.24-5.49 2.42-8.44 2.27-6.62-.38-8.93-6.65-5-11.55 1.73-2.2 2.21-4.17.79-6.43-2-3.16-4.93-6.95-2.9-10.88 1.87-3.6 6.72-2 10.34-1.23 2.49.47 2.85-3.85 6.03-2.75Z" stroke-linecap="round"/></g><g><path style="stroke:#000;stroke-width:.4;stroke-dasharray:none;stroke-linecap:butt;stroke-dashoffset:0;stroke-linejoin:miter;stroke-miterlimit:10;fill:none;fill-rule:nonzero;opacity:1" vector-effect="non-scaling-stroke" transform="matrix(2.51 0 0 2.51 162.42 511.07) matrix(1.6 0 0 1.6 6.25 -0.11) translate(-28.9, -24.93)" d="M30.94 9.79c1.62.54 2.62 2.14 4.24 2.69 1.27.43 2.69.07 3.91.63 2.72 1.24 2.83 5.06 2.38 7.57a13.81 13.81 0 0 0 .34 6.06c.73 2.55 1.71 6.3-.39 8-3.12 2.52-6.36 1.37-11.23 3.52-2.5 1.1-5.08 2.13-7.79 1.95-6-.41-8.23-6.13-4.84-10.65 1.52-2 1.92-3.86.67-5.95-1.77-2.95-4.34-6.46-2.45-10.06 1.74-3.31 6.15-2 9.5-1.34 2.35.46 2.72-3.39 5.66-2.42Z" stroke-linecap="round"/></g><g><path style="stroke:#000;stroke-width:.39;stroke-dasharray:none;stroke-linecap:butt;stroke-dashoffset:0;stroke-linejoin:miter;stroke-miterlimit:10;fill:none;fill-rule:nonzero;opacity:1" vector-effect="non-scaling-stroke" transform="matrix(2.51 0 0 2.51 162.42 511.07) matrix(1.6 0 0 1.6 7.22 -0.08) translate(-29.51, -24.95)" d="M31.24 10.94c1.5.48 2.46 1.89 4 2.4 1.18.4 2.48.11 3.6.64 2.5 1.16 2.69 4.62 2.35 7a14.17 14.17 0 0 0 .36 5.6c.64 2.4 1.44 5.85-.5 7.48-2.87 2.39-5.93 1.49-10.43 3.37-2.31 1-4.68 1.84-7.15 1.64-5.47-.45-7.53-5.61-4.62-9.76 1.29-1.85 1.63-3.53.54-5.45-1.55-2.75-3.75-6-2-9.25 1.6-3 5.59-1.93 8.65-1.44 2.11.3 2.54-3.07 5.2-2.23Z" stroke-linecap="round"/></g><g><path style="stroke:#000;stroke-width:.38;stroke-dasharray:none;stroke-linecap:butt;stroke-dashoffset:0;stroke-linejoin:miter;stroke-miterlimit:10;fill:none;fill-rule:nonzero;opacity:1" vector-effect="non-scaling-stroke" transform="matrix(2.51 0 0 2.51 162.42 511.07) matrix(1.6 0 0 1.6 8.09 -0.15) translate(-30.05, -24.91)" d="M31.53 12.09c1.39.42 2.31 1.64 3.69 2.1 1.08.37 2.26.17 3.28.66 2.28 1.09 2.56 4.18 2.33 6.34a15.2 15.2 0 0 0 .37 5.14c.56 2.26 1.18 5.41-.6 7-2.6 2.21-5.5 1.57-9.6 3.18a14.21 14.21 0 0 1-6.49 1.32c-4.9-.5-6.83-5.09-4.42-8.86a4.52 4.52 0 0 0 .42-5c-1.34-2.54-3.15-5.48-1.56-8.44 1.48-2.72 5-1.9 7.82-1.54 1.89.29 2.37-2.61 4.76-1.9Z" stroke-linecap="round"/></g><g><path style="stroke:#000;stroke-width:.36;stroke-dasharray:none;stroke-linecap:butt;stroke-dashoffset:0;stroke-linejoin:miter;stroke-miterlimit:10;fill:none;fill-rule:nonzero;opacity:1" vector-effect="non-scaling-stroke" transform="matrix(2.51 0 0 2.51 162.42 511.07) matrix(1.6 0 0 1.6 9 -0.16) translate(-30.63, -24.9)" d="M31.82 13.24c1.28.35 2.17 1.38 3.42 1.81 1 .34 2 .21 3 .67 2.06 1 2.42 3.74 2.3 5.72a17.48 17.48 0 0 0 .39 4.69c.47 2.11.9 4.95-.72 6.41-2.36 2.12-5 1.74-8.83 3.09a12.91 12.91 0 0 1-5.85 1c-4.32-.54-6.13-4.56-4.2-8a4.46 4.46 0 0 0 .29-4.49c-1.13-2.33-2.56-5-1.11-7.62 1.35-2.43 4.47-1.88 7-1.64 1.67.2 2.19-2.22 4.31-1.64Z" stroke-linecap="round"/></g><g><path style="stroke:#000;stroke-width:.35;stroke-dasharray:none;stroke-linecap:butt;stroke-dashoffset:0;stroke-linejoin:miter;stroke-miterlimit:10;fill:none;fill-rule:nonzero;opacity:1" vector-effect="non-scaling-stroke" transform="matrix(2.51 0 0 2.51 162.42 511.07) matrix(1.6 0 0 1.6 9.86 -0.11) translate(-31.16, -24.93)" d="M32.11 14.39c1.17.29 2 1.13 3.15 1.52.902.162 1.791.389 2.66.68 1.83.94 2.28 3.3 2.27 5.1.001 1.42.139 2.836.41 4.23.38 2 .63 4.51-.83 5.87-2.11 2-4.62 1.87-8 3a11.518 11.518 0 0 1-5.2.69 4.9 4.9 0 0 1-4-7.06 4.53 4.53 0 0 0 .15-4c-.91-2.13-2-4.51-.65-6.81 1.21-2.14 3.9-1.86 6.13-1.75 1.5.03 2.06-1.93 3.91-1.47Z" stroke-linecap="round"/></g><g><path style="stroke:#000;stroke-width:.34;stroke-dasharray:none;stroke-linecap:butt;stroke-dashoffset:0;stroke-linejoin:miter;stroke-miterlimit:10;fill:none;fill-rule:nonzero;opacity:1" vector-effect="non-scaling-stroke" transform="matrix(2.51 0 0 2.51 162.42 511.07) matrix(1.6 0 0 1.6 10.75 -0.13) translate(-31.72, -24.91)" d="M32.41 15.54c.982.347 1.941.758 2.87 1.23.802.162 1.588.393 2.35.69 1.61.87 2.14 2.86 2.24 4.48.07 1.22.24 2.55.43 3.78.29 1.83.35 4.05-.94 5.33-1.86 1.86-4.18 2-7.24 2.81a10.05 10.05 0 0 1-4.54.37 4.66 4.66 0 0 1-3.79-6.16 4.91 4.91 0 0 0 0-3.52c-.69-1.92-1.36-4-.2-6 1.16-2 3.33-1.88 5.29-1.84 1.34.02 1.94-1.51 3.53-1.17Z" stroke-linecap="round"/></g><g><path style="stroke:#000;stroke-width:.32;stroke-dasharray:none;stroke-linecap:butt;stroke-dashoffset:0;stroke-linejoin:miter;stroke-miterlimit:10;fill:none;fill-rule:nonzero;opacity:1" vector-effect="non-scaling-stroke" transform="matrix(2.51 0 0 2.51 162.42 511.07) matrix(1.6 0 0 1.6 11.6 -0.08) translate(-32.25, -24.95)" d="M32.7 16.69c.892.238 1.762.553 2.6.94.688.166 1.358.4 2 .7a5.199 5.199 0 0 1 2.21 3.87c.15 1.05.32 2.21.45 3.31.19 1.69.07 3.6-1 4.8C37.33 32 35.2 32.43 32.51 33a8.86 8.86 0 0 1-3.9.05A4.55 4.55 0 0 1 25 27.76a6.38 6.38 0 0 0-.1-3c-.47-1.72-.77-3.53.24-5.18s2.86-1.82 4.5-1.98c1.09-.1 1.75-1.13 3.06-.91Z" stroke-linecap="round"/></g><g><path style="stroke:#000;stroke-width:.31;stroke-dasharray:none;stroke-linecap:butt;stroke-dashoffset:0;stroke-linejoin:miter;stroke-miterlimit:10;fill:none;fill-rule:nonzero;opacity:1" vector-effect="non-scaling-stroke" transform="matrix(2.51 0 0 2.51 162.42 511.07) matrix(1.6 0 0 1.6 12.46 -0.01) translate(-32.79, -25)" d="M33 17.84c.799.121 1.581.336 2.33.64.58.183 1.139.424 1.67.72a5.36 5.36 0 0 1 2.19 3.25c.24.934.398 1.888.47 2.85a5.9 5.9 0 0 1-1.17 4.27 8.25 8.25 0 0 1-5.63 2.52 7.37 7.37 0 0 1-3.25-.26 4.77 4.77 0 0 1-3.36-4.37c-.02-.85-.098-1.7-.23-2.54a5.94 5.94 0 0 1 .69-4.37 5.3 5.3 0 0 1 3.62-2.05c.92-.18 1.67-.76 2.67-.66Z" stroke-linecap="round"/></g><g><path style="stroke:#000;stroke-width:.29;stroke-dasharray:none;stroke-linecap:butt;stroke-dashoffset:0;stroke-linejoin:miter;stroke-miterlimit:10;fill:none;fill-rule:nonzero;opacity:1" vector-effect="non-scaling-stroke" transform="matrix(2.51 0 0 2.51 162.42 511.07) matrix(1.6 0 0 1.6 13.26 0.16) translate(-33.29, -25.1)" d="M33.29 31.21a6.11 6.11 0 1 0 0-12.22 6.11 6.11 0 0 0 0 12.22Z" stroke-linecap="round"/></g></g></g></svg></g></svg>